<svg xmlns="http://www.w3.org/2000/svg" xmlns:xlink="http://www.w3.org/1999/xlink" width="40" zoomAndPan="magnify" viewBox="0 0 30 30.000001" height="40" preserveAspectRatio="xMidYMid meet" version="1.0"><defs><clipPath id="ef4c11008e"><path d="M 5 8 L 24 8 L 24 16 L 5 16 Z M 5 8 " clip-rule="nonzero"/></clipPath><clipPath id="f86aa372e8"><path d="M 5.730469 10.007812 L 23.804688 8.378906 L 24.386719 14.886719 L 6.316406 16.511719 Z M 5.730469 10.007812 " clip-rule="nonzero"/></clipPath><clipPath id="86c6534a9d"><path d="M 23.703125 8.390625 L 5.628906 10.015625 L 6.214844 16.519531 L 24.285156 14.894531 Z M 23.703125 8.390625 " clip-rule="nonzero"/></clipPath></defs><path fill="#183e9f" d="M 18.34375 6.445312 C 18.34375 6.445312 14.96875 7.074219 11.328125 3.960938 C 7.289062 0.5 4.34375 0.914062 3.007812 3.496094 C 0.488281 8.371094 1.914062 19.1875 8.761719 27.671875 C 8.761719 27.671875 10.332031 29.882812 10.9375 26.070312 C 11.542969 22.253906 15 19.078125 17.320312 23.644531 C 17.320312 23.644531 16.355469 18.828125 13.433594 20.007812 C 13.433594 20.007812 11.722656 20.933594 10.328125 23.929688 C 10.328125 23.929688 10.007812 26.140625 7.976562 22.679688 C 5.945312 19.222656 2.984375 11.839844 4.195312 5.351562 C 4.195312 5.351562 4.824219 1.65625 8.867188 3.960938 C 8.867188 3.960938 15.371094 8.394531 18.34375 6.445312 Z M 18.34375 6.445312 " fill-opacity="1" fill-rule="nonzero"/><path fill="#183e9f" d="M 12.578125 3.78125 C 12.578125 3.78125 16.035156 6.847656 20.207031 4.492188 C 24.378906 2.140625 26.304688 3.851562 26.019531 8.773438 C 25.734375 13.695312 23.632812 20.578125 22.382812 23.109375 C 21.136719 25.640625 19.625 24.628906 18.339844 21.21875 C 17.554688 19.128906 16.488281 17.332031 14.644531 17.4375 C 14.644531 17.4375 16.605469 17.1875 19.066406 26.210938 C 19.066406 26.210938 19.386719 28.101562 20.386719 28.066406 C 21.382812 28.03125 22.382812 27.28125 24.558594 22.359375 C 26.734375 17.4375 29.515625 8.84375 27.804688 4.257812 C 27.804688 4.257812 26.589844 0 20.863281 2.78125 C 18.636719 3.863281 17.53125 5.355469 12.578125 3.78125 Z M 12.578125 3.78125 " fill-opacity="1" fill-rule="nonzero"/><g clip-path="url(#ef4c11008e)"><g clip-path="url(#f86aa372e8)"><g clip-path="url(#86c6534a9d)"><path fill="#ffc100" d="M 6.328125 11.972656 C 6.332031 11.933594 6.335938 11.898438 6.34375 11.863281 L 6.363281 11.757812 C 6.375 11.6875 6.398438 11.621094 6.414062 11.558594 C 6.457031 11.429688 6.503906 11.308594 6.566406 11.195312 C 6.628906 11.082031 6.695312 10.976562 6.777344 10.878906 C 6.933594 10.683594 7.128906 10.515625 7.363281 10.382812 L 7.410156 10.359375 L 7.453125 10.335938 C 7.484375 10.320312 7.515625 10.304688 7.546875 10.289062 C 7.613281 10.265625 7.679688 10.234375 7.75 10.210938 C 7.820312 10.1875 7.894531 10.164062 7.96875 10.144531 C 8.046875 10.125 8.128906 10.109375 8.210938 10.089844 C 8.078125 9.984375 7.910156 9.914062 7.734375 9.878906 C 7.648438 9.863281 7.558594 9.859375 7.46875 9.855469 C 7.421875 9.855469 7.378906 9.859375 7.332031 9.863281 L 7.261719 9.871094 C 7.238281 9.871094 7.21875 9.878906 7.195312 9.882812 C 6.832031 9.949219 6.488281 10.160156 6.25 10.453125 C 6.132812 10.601562 6.042969 10.769531 5.976562 10.949219 C 5.914062 11.125 5.886719 11.3125 5.886719 11.496094 C 5.890625 11.542969 5.894531 11.589844 5.898438 11.636719 C 5.902344 11.660156 5.902344 11.679688 5.90625 11.703125 C 5.914062 11.726562 5.917969 11.746094 5.921875 11.769531 C 5.933594 11.8125 5.941406 11.859375 5.957031 11.902344 C 5.96875 11.945312 5.984375 11.984375 6 12.027344 C 6.074219 12.191406 6.171875 12.339844 6.308594 12.449219 C 6.304688 12.273438 6.308594 12.121094 6.328125 11.972656 Z M 23.464844 10.429688 C 23.453125 10.394531 23.441406 10.359375 23.429688 10.328125 L 23.390625 10.226562 C 23.367188 10.160156 23.332031 10.097656 23.304688 10.039062 C 23.238281 9.917969 23.171875 9.808594 23.089844 9.707031 C 23.007812 9.609375 22.925781 9.515625 22.828125 9.433594 C 22.636719 9.269531 22.414062 9.140625 22.160156 9.054688 L 22.113281 9.035156 L 22.0625 9.023438 C 22.03125 9.015625 21.996094 9.003906 21.960938 8.996094 C 21.894531 8.980469 21.824219 8.960938 21.75 8.953125 C 21.675781 8.941406 21.601562 8.933594 21.519531 8.925781 C 21.441406 8.921875 21.359375 8.917969 21.273438 8.917969 C 21.386719 8.785156 21.539062 8.691406 21.703125 8.625 C 21.789062 8.589844 21.875 8.570312 21.964844 8.550781 C 22.007812 8.542969 22.054688 8.539062 22.097656 8.535156 L 22.167969 8.527344 C 22.191406 8.527344 22.214844 8.527344 22.238281 8.527344 C 22.609375 8.53125 22.980469 8.675781 23.269531 8.925781 C 23.414062 9.046875 23.53125 9.199219 23.625 9.359375 C 23.71875 9.523438 23.78125 9.703125 23.8125 9.886719 C 23.816406 9.933594 23.820312 9.976562 23.824219 10.023438 C 23.824219 10.046875 23.828125 10.070312 23.828125 10.089844 C 23.828125 10.113281 23.828125 10.136719 23.828125 10.160156 C 23.824219 10.207031 23.824219 10.25 23.816406 10.292969 C 23.8125 10.339844 23.804688 10.382812 23.792969 10.425781 C 23.753906 10.601562 23.683594 10.765625 23.570312 10.898438 C 23.539062 10.726562 23.507812 10.574219 23.464844 10.429688 Z M 7.148438 10.695312 C 7.210938 10.765625 7.269531 10.835938 7.335938 10.90625 L 7.429688 11.011719 L 7.476562 11.0625 L 7.527344 11.113281 L 7.726562 11.308594 L 7.828125 11.40625 L 7.933594 11.5 C 8.078125 11.625 8.21875 11.746094 8.371094 11.859375 L 8.597656 12.03125 C 8.675781 12.085938 8.753906 12.140625 8.832031 12.191406 C 9.035156 12.332031 9.917969 13.140625 9.972656 13.195312 C 10.027344 13.25 10.082031 13.304688 10.136719 13.363281 C 10.1875 13.417969 10.242188 13.472656 10.300781 13.527344 C 10.753906 13.953125 11.269531 14.324219 11.824219 14.625 C 11.894531 14.660156 11.964844 14.699219 12.035156 14.734375 L 12.25 14.835938 C 12.394531 14.90625 12.542969 14.960938 12.691406 15.019531 C 12.988281 15.132812 13.300781 15.21875 13.613281 15.292969 C 13.691406 15.3125 13.769531 15.324219 13.851562 15.335938 L 14.085938 15.378906 C 14.246094 15.398438 14.40625 15.414062 14.566406 15.429688 C 14.570312 15.429688 14.570312 15.429688 14.570312 15.429688 L 14.8125 15.4375 C 14.894531 15.4375 14.972656 15.445312 15.054688 15.441406 L 15.417969 15.429688 C 15.460938 15.425781 15.5 15.421875 15.539062 15.417969 L 15.78125 15.390625 C 15.820312 15.386719 15.863281 15.382812 15.902344 15.378906 L 16.023438 15.355469 C 16.179688 15.328125 16.34375 15.304688 16.5 15.257812 L 16.734375 15.199219 C 16.8125 15.179688 16.886719 15.148438 16.964844 15.125 L 17.195312 15.046875 C 17.269531 15.019531 17.34375 14.984375 17.417969 14.953125 L 17.640625 14.859375 C 17.710938 14.824219 17.785156 14.789062 17.855469 14.753906 C 17.925781 14.714844 18 14.679688 18.070312 14.640625 C 18.140625 14.601562 18.207031 14.558594 18.277344 14.519531 L 18.480469 14.394531 C 18.546875 14.347656 18.613281 14.300781 18.675781 14.253906 L 18.871094 14.117188 C 18.933594 14.070312 18.992188 14.015625 19.054688 13.964844 C 19.175781 13.867188 19.300781 13.765625 19.410156 13.65625 L 19.582031 13.492188 L 19.664062 13.410156 C 19.691406 13.378906 19.71875 13.351562 19.746094 13.320312 C 19.847656 13.203125 19.957031 13.089844 20.058594 12.972656 L 20.34375 12.601562 L 20.375 12.558594 C 20.378906 12.558594 20.378906 12.554688 20.378906 12.554688 L 20.410156 12.507812 L 20.476562 12.414062 C 20.519531 12.347656 21.378906 11.191406 21.550781 11.023438 L 21.652344 10.925781 L 21.703125 10.875 L 21.75 10.824219 L 21.941406 10.613281 L 22.132812 10.40625 C 22.195312 10.335938 22.25 10.257812 22.308594 10.1875 L 22.484375 9.964844 L 22.570312 9.855469 L 22.652344 9.738281 C 22.652344 9.738281 22.652344 9.734375 22.65625 9.730469 C 22.703125 9.664062 22.613281 9.582031 22.546875 9.636719 C 22.546875 9.640625 22.546875 9.640625 22.542969 9.640625 L 22.441406 9.734375 L 22.332031 9.820312 L 22.121094 9.996094 C 22.050781 10.054688 21.980469 10.117188 21.90625 10.171875 L 21.6875 10.339844 L 21.472656 10.503906 L 21.417969 10.546875 C 21.417969 10.546875 21.417969 10.546875 21.414062 10.546875 L 21.25 10.664062 C 20.65625 11.085938 20.039062 11.460938 19.394531 11.769531 C 18.105469 12.394531 16.726562 12.777344 15.316406 12.898438 C 13.90625 13.019531 12.476562 12.890625 11.09375 12.515625 C 9.710938 12.144531 8.382812 11.535156 7.148438 10.695312 " fill-opacity="1" fill-rule="nonzero"/></g></g></g></svg>