<svg xmlns="http://www.w3.org/2000/svg" xmlns:xlink="http://www.w3.org/1999/xlink" width="110" zoomAndPan="magnify" viewBox="0 0 82.5 30.000001" height="40" preserveAspectRatio="xMidYMid meet" version="1.0"><defs><g/><clipPath id="2376d82e3c"><path d="M 8 11 L 13 11 L 13 15 L 8 15 Z M 8 11 " clip-rule="nonzero"/></clipPath><clipPath id="6a1f31dea9"><path d="M 8.761719 14.980469 L 8.410156 11.648438 L 12.574219 11.207031 L 12.925781 14.539062 Z M 8.761719 14.980469 " clip-rule="nonzero"/></clipPath><clipPath id="b858e379ef"><path d="M 22.734375 7.871094 L 80.925781 7.871094 L 80.925781 18.570312 L 22.734375 18.570312 Z M 22.734375 7.871094 " clip-rule="nonzero"/></clipPath><clipPath id="dce651d475"><path d="M 16 7 L 30 7 L 30 21 L 16 21 Z M 16 7 " clip-rule="nonzero"/></clipPath><clipPath id="8ec0334563"><path d="M 16.582031 11.394531 L 21.925781 7.183594 L 29.144531 16.347656 L 23.804688 20.558594 Z M 16.582031 11.394531 " clip-rule="nonzero"/></clipPath><clipPath id="a4721d7ef8"><path d="M 24 16 L 40 16 L 40 29.03125 L 24 29.03125 Z M 24 16 " clip-rule="nonzero"/></clipPath><clipPath id="a77dfe6416"><path d="M 33.195312 16.023438 L 39.003906 19.394531 L 30.417969 34.199219 L 24.609375 30.828125 Z M 33.195312 16.023438 " clip-rule="nonzero"/></clipPath><clipPath id="554aa777b2"><path d="M 21 13 L 37 13 L 37 29.03125 L 21 29.03125 Z M 21 13 " clip-rule="nonzero"/></clipPath><clipPath id="5db5444c3e"><path d="M 21.890625 16.203125 L 30.285156 13.066406 L 36.5625 29.859375 L 28.167969 32.996094 Z M 21.890625 16.203125 " clip-rule="nonzero"/></clipPath><clipPath id="9b7550bfa2"><path d="M 76 11 L 80.925781 11 L 80.925781 18 L 76 18 Z M 76 11 " clip-rule="nonzero"/></clipPath><clipPath id="ea513ec2ed"><path d="M 1.089844 7 L 19 7 L 19 15 L 1.089844 15 Z M 1.089844 7 " clip-rule="nonzero"/></clipPath><clipPath id="2d6ab13931"><path d="M 1.089844 9.058594 L 17.714844 7.5625 L 18.234375 13.347656 L 1.609375 14.839844 Z M 1.089844 9.058594 " clip-rule="nonzero"/></clipPath><clipPath id="1258bdc8c0"><path d="M 18.054688 7.53125 L 1.429688 9.027344 L 1.949219 14.8125 L 18.574219 13.316406 Z M 18.054688 7.53125 " clip-rule="nonzero"/></clipPath></defs><path fill="#183e9f" d="M 25.265625 6.515625 C 25.265625 6.515625 21.855469 7.15625 18.175781 4.003906 C 14.089844 0.507812 11.117188 0.925781 9.765625 3.539062 C 7.21875 8.464844 8.660156 19.394531 15.582031 27.972656 C 15.582031 27.972656 17.167969 30.210938 17.78125 26.351562 C 18.390625 22.496094 21.886719 19.289062 24.230469 23.902344 C 24.230469 23.902344 23.257812 19.035156 20.300781 20.226562 C 20.300781 20.226562 18.574219 21.164062 17.167969 24.191406 C 17.167969 24.191406 16.84375 26.425781 14.789062 22.929688 C 12.734375 19.433594 9.742188 11.972656 10.96875 5.410156 C 10.96875 5.410156 11.601562 1.679688 15.6875 4.003906 C 15.6875 4.003906 22.261719 8.488281 25.265625 6.515625 Z M 25.265625 6.515625 " fill-opacity="1" fill-rule="nonzero"/><path fill="#183e9f" d="M 19.441406 3.824219 C 19.441406 3.824219 22.933594 6.925781 27.152344 4.546875 C 31.367188 2.167969 33.3125 3.898438 33.027344 8.871094 C 32.738281 13.84375 30.609375 20.800781 29.347656 23.359375 C 28.085938 25.921875 26.5625 24.898438 25.265625 21.449219 C 24.46875 19.335938 23.390625 17.523438 21.527344 17.628906 C 21.527344 17.628906 23.511719 17.378906 25.996094 26.496094 C 25.996094 26.496094 26.320312 28.40625 27.332031 28.371094 C 28.339844 28.335938 29.347656 27.578125 31.546875 22.605469 C 33.746094 17.628906 36.558594 8.945312 34.828125 4.304688 C 34.828125 4.304688 33.601562 0.00390625 27.8125 2.816406 C 25.5625 3.90625 24.445312 5.417969 19.441406 3.824219 Z M 19.441406 3.824219 " fill-opacity="1" fill-rule="nonzero"/><g clip-path="url(#2376d82e3c)"><g clip-path="url(#6a1f31dea9)"><path fill="#ffffff" d="M 8.761719 14.980469 L 8.410156 11.648438 L 12.570312 11.207031 L 12.925781 14.539062 Z M 8.761719 14.980469 " fill-opacity="1" fill-rule="nonzero"/></g></g><g clip-path="url(#b858e379ef)"><path fill="#ffffff" d="M 22.734375 7.871094 L 92.136719 7.871094 L 92.136719 18.570312 L 22.734375 18.570312 Z M 22.734375 7.871094 " fill-opacity="1" fill-rule="nonzero"/></g><g clip-path="url(#dce651d475)"><g clip-path="url(#8ec0334563)"><path fill="#ffffff" d="M 16.582031 11.394531 L 21.925781 7.183594 L 29.140625 16.34375 L 23.800781 20.554688 Z M 16.582031 11.394531 " fill-opacity="1" fill-rule="nonzero"/></g></g><g clip-path="url(#a4721d7ef8)"><g clip-path="url(#a77dfe6416)"><path fill="#ffffff" d="M 33.195312 16.023438 L 39.003906 19.394531 L 30.421875 34.195312 L 24.609375 30.824219 Z M 33.195312 16.023438 " fill-opacity="1" fill-rule="nonzero"/></g></g><g clip-path="url(#554aa777b2)"><g clip-path="url(#5db5444c3e)"><path fill="#ffffff" d="M 21.890625 16.203125 L 30.285156 13.066406 L 36.5625 29.855469 L 28.167969 32.996094 Z M 21.890625 16.203125 " fill-opacity="1" fill-rule="nonzero"/></g></g><g fill="#ff5757" fill-opacity="1"><g transform="translate(18.586677, 17.448084)"><g><path d="M 5.21875 -7.484375 L 6.8125 -7.484375 L 4.265625 0 L 2.546875 0 L 0 -7.484375 L 1.609375 -7.484375 L 3.015625 -3.03125 C 3.085938 -2.769531 3.164062 -2.460938 3.25 -2.109375 C 3.332031 -1.765625 3.382812 -1.519531 3.40625 -1.375 C 3.445312 -1.695312 3.578125 -2.25 3.796875 -3.03125 Z M 5.21875 -7.484375 "/></g></g></g><g fill="#38b6ff" fill-opacity="1"><g transform="translate(25.40085, 17.448084)"><g><path d="M 0.75 -7.203125 C 0.75 -7.710938 1.035156 -7.96875 1.609375 -7.96875 C 2.171875 -7.96875 2.453125 -7.710938 2.453125 -7.203125 C 2.453125 -6.960938 2.378906 -6.773438 2.234375 -6.640625 C 2.097656 -6.503906 1.890625 -6.4375 1.609375 -6.4375 C 1.035156 -6.4375 0.75 -6.691406 0.75 -7.203125 Z M 2.375 0 L 0.8125 0 L 0.8125 -5.71875 L 2.375 -5.71875 Z M 2.375 0 "/></g></g></g><g fill="#00bf63" fill-opacity="1"><g transform="translate(28.600975, 17.448084)"><g><path d="M 2.1875 0 L 0 -5.71875 L 1.640625 -5.71875 L 2.734375 -2.46875 C 2.859375 -2.050781 2.9375 -1.660156 2.96875 -1.296875 L 3 -1.296875 C 3.019531 -1.617188 3.097656 -2.007812 3.234375 -2.46875 L 4.328125 -5.71875 L 5.96875 -5.71875 L 3.78125 0 Z M 2.1875 0 "/></g></g></g><g fill="#ffde59" fill-opacity="1"><g transform="translate(34.566035, 17.448084)"><g><path d="M 0.75 -7.203125 C 0.75 -7.710938 1.035156 -7.96875 1.609375 -7.96875 C 2.171875 -7.96875 2.453125 -7.710938 2.453125 -7.203125 C 2.453125 -6.960938 2.378906 -6.773438 2.234375 -6.640625 C 2.097656 -6.503906 1.890625 -6.4375 1.609375 -6.4375 C 1.035156 -6.4375 0.75 -6.691406 0.75 -7.203125 Z M 2.375 0 L 0.8125 0 L 0.8125 -5.71875 L 2.375 -5.71875 Z M 2.375 0 "/></g></g></g><g fill="#ff914d" fill-opacity="1"><g transform="translate(37.766161, 17.448084)"><g><path d="M 2.625 0.109375 C 1.957031 0.109375 1.429688 -0.148438 1.046875 -0.671875 C 0.660156 -1.203125 0.46875 -1.925781 0.46875 -2.84375 C 0.46875 -3.789062 0.660156 -4.523438 1.046875 -5.046875 C 1.441406 -5.566406 1.984375 -5.828125 2.671875 -5.828125 C 3.390625 -5.828125 3.941406 -5.546875 4.328125 -4.984375 L 4.375 -4.984375 C 4.289062 -5.410156 4.25 -5.796875 4.25 -6.140625 L 4.25 -7.96875 L 5.828125 -7.96875 L 5.828125 0 L 4.625 0 L 4.328125 -0.75 L 4.25 -0.75 C 3.894531 -0.175781 3.351562 0.109375 2.625 0.109375 Z M 3.171875 -1.140625 C 3.578125 -1.140625 3.875 -1.253906 4.0625 -1.484375 C 4.25 -1.722656 4.347656 -2.117188 4.359375 -2.671875 L 4.359375 -2.84375 C 4.359375 -3.457031 4.265625 -3.894531 4.078125 -4.15625 C 3.890625 -4.425781 3.582031 -4.5625 3.15625 -4.5625 C 2.800781 -4.5625 2.523438 -4.410156 2.328125 -4.109375 C 2.140625 -3.816406 2.046875 -3.390625 2.046875 -2.828125 C 2.046875 -2.265625 2.144531 -1.84375 2.34375 -1.5625 C 2.539062 -1.28125 2.816406 -1.140625 3.171875 -1.140625 Z M 3.171875 -1.140625 "/></g></g></g><g fill="#ff5757" fill-opacity="1"><g transform="translate(44.402003, 17.448084)"><g/></g></g><g fill="#ff5757" fill-opacity="1"><g transform="translate(47.125346, 17.448084)"><g><path d="M 5.359375 -2.078125 C 5.359375 -1.398438 5.113281 -0.863281 4.625 -0.46875 C 4.144531 -0.0820312 3.46875 0.109375 2.59375 0.109375 C 1.800781 0.109375 1.097656 -0.0390625 0.484375 -0.34375 L 0.484375 -1.828125 C 0.984375 -1.597656 1.40625 -1.4375 1.75 -1.34375 C 2.101562 -1.25 2.425781 -1.203125 2.71875 -1.203125 C 3.070312 -1.203125 3.335938 -1.269531 3.515625 -1.40625 C 3.703125 -1.539062 3.796875 -1.738281 3.796875 -2 C 3.796875 -2.144531 3.753906 -2.273438 3.671875 -2.390625 C 3.597656 -2.503906 3.476562 -2.613281 3.3125 -2.71875 C 3.15625 -2.820312 2.832031 -2.992188 2.34375 -3.234375 C 1.882812 -3.441406 1.539062 -3.644531 1.3125 -3.84375 C 1.09375 -4.039062 0.910156 -4.269531 0.765625 -4.53125 C 0.628906 -4.800781 0.5625 -5.113281 0.5625 -5.46875 C 0.5625 -6.125 0.785156 -6.640625 1.234375 -7.015625 C 1.691406 -7.398438 2.316406 -7.59375 3.109375 -7.59375 C 3.492188 -7.59375 3.863281 -7.546875 4.21875 -7.453125 C 4.570312 -7.359375 4.941406 -7.226562 5.328125 -7.0625 L 4.8125 -5.828125 C 4.414062 -5.992188 4.085938 -6.109375 3.828125 -6.171875 C 3.566406 -6.234375 3.304688 -6.265625 3.046875 -6.265625 C 2.742188 -6.265625 2.515625 -6.191406 2.359375 -6.046875 C 2.203125 -5.910156 2.125 -5.734375 2.125 -5.515625 C 2.125 -5.367188 2.15625 -5.242188 2.21875 -5.140625 C 2.28125 -5.035156 2.378906 -4.9375 2.515625 -4.84375 C 2.660156 -4.75 3 -4.578125 3.53125 -4.328125 C 4.226562 -3.984375 4.707031 -3.644531 4.96875 -3.3125 C 5.226562 -2.976562 5.359375 -2.566406 5.359375 -2.078125 Z M 5.359375 -2.078125 "/></g></g></g><g fill="#ff5757" fill-opacity="1"><g transform="translate(52.899652, 17.448084)"><g><path d="M 5.9375 0 L 4.375 0 L 4.375 -3.34375 C 4.375 -3.757812 4.304688 -4.066406 4.171875 -4.265625 C 4.035156 -4.472656 3.816406 -4.578125 3.515625 -4.578125 C 3.117188 -4.578125 2.828125 -4.429688 2.640625 -4.140625 C 2.460938 -3.847656 2.375 -3.363281 2.375 -2.6875 L 2.375 0 L 0.8125 0 L 0.8125 -5.71875 L 2.015625 -5.71875 L 2.21875 -4.984375 L 2.3125 -4.984375 C 2.46875 -5.253906 2.6875 -5.460938 2.96875 -5.609375 C 3.257812 -5.753906 3.59375 -5.828125 3.96875 -5.828125 C 4.820312 -5.828125 5.40625 -5.546875 5.71875 -4.984375 L 5.84375 -4.984375 C 6 -5.253906 6.226562 -5.460938 6.53125 -5.609375 C 6.832031 -5.753906 7.171875 -5.828125 7.546875 -5.828125 C 8.191406 -5.828125 8.679688 -5.660156 9.015625 -5.328125 C 9.347656 -4.992188 9.515625 -4.460938 9.515625 -3.734375 L 9.515625 0 L 7.9375 0 L 7.9375 -3.34375 C 7.9375 -3.757812 7.867188 -4.066406 7.734375 -4.265625 C 7.597656 -4.472656 7.378906 -4.578125 7.078125 -4.578125 C 6.703125 -4.578125 6.414062 -4.441406 6.21875 -4.171875 C 6.03125 -3.898438 5.9375 -3.46875 5.9375 -2.875 Z M 5.9375 0 "/></g></g></g><g fill="#ff5757" fill-opacity="1"><g transform="translate(63.194093, 17.448084)"><g><path d="M 0.75 -7.203125 C 0.75 -7.710938 1.035156 -7.96875 1.609375 -7.96875 C 2.171875 -7.96875 2.453125 -7.710938 2.453125 -7.203125 C 2.453125 -6.960938 2.378906 -6.773438 2.234375 -6.640625 C 2.097656 -6.503906 1.890625 -6.4375 1.609375 -6.4375 C 1.035156 -6.4375 0.75 -6.691406 0.75 -7.203125 Z M 2.375 0 L 0.8125 0 L 0.8125 -5.71875 L 2.375 -5.71875 Z M 2.375 0 "/></g></g></g><g fill="#ff5757" fill-opacity="1"><g transform="translate(66.393509, 17.448084)"><g><path d="M 2.375 0 L 0.8125 0 L 0.8125 -7.96875 L 2.375 -7.96875 Z M 2.375 0 "/></g></g></g><g fill="#ff5757" fill-opacity="1"><g transform="translate(69.592925, 17.448084)"><g><path d="M 3.1875 -4.71875 C 2.851562 -4.71875 2.59375 -4.613281 2.40625 -4.40625 C 2.21875 -4.195312 2.113281 -3.898438 2.09375 -3.515625 L 4.28125 -3.515625 C 4.269531 -3.898438 4.164062 -4.195312 3.96875 -4.40625 C 3.78125 -4.613281 3.519531 -4.71875 3.1875 -4.71875 Z M 3.40625 0.109375 C 2.488281 0.109375 1.769531 -0.144531 1.25 -0.65625 C 0.726562 -1.164062 0.46875 -1.890625 0.46875 -2.828125 C 0.46875 -3.785156 0.707031 -4.523438 1.1875 -5.046875 C 1.664062 -5.566406 2.328125 -5.828125 3.171875 -5.828125 C 3.984375 -5.828125 4.613281 -5.597656 5.0625 -5.140625 C 5.519531 -4.679688 5.75 -4.046875 5.75 -3.234375 L 5.75 -2.46875 L 2.046875 -2.46875 C 2.066406 -2.03125 2.195312 -1.6875 2.4375 -1.4375 C 2.6875 -1.1875 3.035156 -1.0625 3.484375 -1.0625 C 3.828125 -1.0625 4.148438 -1.097656 4.453125 -1.171875 C 4.765625 -1.242188 5.085938 -1.359375 5.421875 -1.515625 L 5.421875 -0.296875 C 5.148438 -0.160156 4.859375 -0.0625 4.546875 0 C 4.234375 0.0703125 3.851562 0.109375 3.40625 0.109375 Z M 3.40625 0.109375 "/></g></g></g><g clip-path="url(#9b7550bfa2)"><g fill="#ff5757" fill-opacity="1"><g transform="translate(75.786994, 17.448084)"><g><path d="M 4.8125 -1.703125 C 4.8125 -1.109375 4.609375 -0.65625 4.203125 -0.34375 C 3.796875 -0.0390625 3.1875 0.109375 2.375 0.109375 C 1.957031 0.109375 1.597656 0.078125 1.296875 0.015625 C 1.003906 -0.0351562 0.734375 -0.117188 0.484375 -0.234375 L 0.484375 -1.515625 C 0.773438 -1.378906 1.097656 -1.265625 1.453125 -1.171875 C 1.816406 -1.085938 2.140625 -1.046875 2.421875 -1.046875 C 2.984375 -1.046875 3.265625 -1.207031 3.265625 -1.53125 C 3.265625 -1.65625 3.226562 -1.753906 3.15625 -1.828125 C 3.082031 -1.910156 2.953125 -2 2.765625 -2.09375 C 2.585938 -2.1875 2.34375 -2.300781 2.03125 -2.4375 C 1.59375 -2.613281 1.269531 -2.78125 1.0625 -2.9375 C 0.851562 -3.09375 0.703125 -3.269531 0.609375 -3.46875 C 0.515625 -3.675781 0.46875 -3.929688 0.46875 -4.234375 C 0.46875 -4.742188 0.664062 -5.132812 1.0625 -5.40625 C 1.457031 -5.6875 2.015625 -5.828125 2.734375 -5.828125 C 3.421875 -5.828125 4.09375 -5.675781 4.75 -5.375 L 4.28125 -4.25 C 3.988281 -4.375 3.71875 -4.472656 3.46875 -4.546875 C 3.226562 -4.628906 2.976562 -4.671875 2.71875 -4.671875 C 2.25 -4.671875 2.015625 -4.546875 2.015625 -4.296875 C 2.015625 -4.160156 2.085938 -4.039062 2.234375 -3.9375 C 2.390625 -3.832031 2.71875 -3.679688 3.21875 -3.484375 C 3.664062 -3.296875 3.992188 -3.125 4.203125 -2.96875 C 4.410156 -2.8125 4.5625 -2.628906 4.65625 -2.421875 C 4.757812 -2.222656 4.8125 -1.984375 4.8125 -1.703125 Z M 4.8125 -1.703125 "/></g></g></g></g><g fill="#183e9f" fill-opacity="1"><g transform="translate(25.610378, 22.948196)"><g><path d="M 1.671875 -1.21875 L 1.671875 -0.78125 C 1.671875 -0.519531 1.601562 -0.316406 1.46875 -0.171875 C 1.34375 -0.0351562 1.15625 0.03125 0.90625 0.03125 C 0.65625 0.03125 0.460938 -0.0351562 0.328125 -0.171875 C 0.203125 -0.316406 0.140625 -0.519531 0.140625 -0.78125 L 0.140625 -2.46875 C 0.140625 -2.726562 0.203125 -2.925781 0.328125 -3.0625 C 0.460938 -3.207031 0.65625 -3.28125 0.90625 -3.28125 C 1.15625 -3.28125 1.34375 -3.207031 1.46875 -3.0625 C 1.601562 -2.925781 1.671875 -2.726562 1.671875 -2.46875 L 1.671875 -2.15625 L 1.1875 -2.15625 L 1.1875 -2.5 C 1.1875 -2.613281 1.160156 -2.695312 1.109375 -2.75 C 1.066406 -2.800781 1.003906 -2.828125 0.921875 -2.828125 C 0.835938 -2.828125 0.769531 -2.800781 0.71875 -2.75 C 0.675781 -2.695312 0.65625 -2.613281 0.65625 -2.5 L 0.65625 -0.75 C 0.65625 -0.632812 0.675781 -0.550781 0.71875 -0.5 C 0.769531 -0.457031 0.835938 -0.4375 0.921875 -0.4375 C 1.003906 -0.4375 1.066406 -0.457031 1.109375 -0.5 C 1.160156 -0.550781 1.1875 -0.632812 1.1875 -0.75 L 1.1875 -1.21875 Z M 1.671875 -1.21875 "/></g></g></g><g fill="#183e9f" fill-opacity="1"><g transform="translate(27.912732, 22.948196)"><g><path d="M 0.65625 -0.75 C 0.65625 -0.632812 0.675781 -0.550781 0.71875 -0.5 C 0.769531 -0.445312 0.835938 -0.421875 0.921875 -0.421875 C 1.003906 -0.421875 1.066406 -0.445312 1.109375 -0.5 C 1.160156 -0.550781 1.1875 -0.632812 1.1875 -0.75 L 1.1875 -2.5 C 1.1875 -2.613281 1.160156 -2.695312 1.109375 -2.75 C 1.066406 -2.800781 1.003906 -2.828125 0.921875 -2.828125 C 0.835938 -2.828125 0.769531 -2.800781 0.71875 -2.75 C 0.675781 -2.695312 0.65625 -2.613281 0.65625 -2.5 Z M 0.140625 -2.46875 C 0.140625 -2.726562 0.207031 -2.925781 0.34375 -3.0625 C 0.476562 -3.207031 0.671875 -3.28125 0.921875 -3.28125 C 1.171875 -3.28125 1.359375 -3.207031 1.484375 -3.0625 C 1.617188 -2.925781 1.6875 -2.726562 1.6875 -2.46875 L 1.6875 -0.78125 C 1.6875 -0.519531 1.617188 -0.316406 1.484375 -0.171875 C 1.359375 -0.0351562 1.171875 0.03125 0.921875 0.03125 C 0.671875 0.03125 0.476562 -0.0351562 0.34375 -0.171875 C 0.207031 -0.316406 0.140625 -0.519531 0.140625 -0.78125 Z M 0.140625 -2.46875 "/></g></g></g><g fill="#183e9f" fill-opacity="1"><g transform="translate(30.261409, 22.948196)"><g><path d="M 1.265625 -0.9375 L 1.609375 -3.25 L 2.328125 -3.25 L 2.328125 0 L 1.84375 0 L 1.84375 -2.328125 L 1.484375 0 L 1 0 L 0.625 -2.296875 L 0.625 0 L 0.1875 0 L 0.1875 -3.25 L 0.890625 -3.25 Z M 1.265625 -0.9375 "/></g></g></g><g fill="#183e9f" fill-opacity="1"><g transform="translate(33.281762, 22.948196)"><g><path d="M 0.9375 -3.25 C 1.195312 -3.25 1.390625 -3.179688 1.515625 -3.046875 C 1.640625 -2.910156 1.703125 -2.710938 1.703125 -2.453125 L 1.703125 -2.015625 C 1.703125 -1.753906 1.640625 -1.554688 1.515625 -1.421875 C 1.390625 -1.285156 1.195312 -1.21875 0.9375 -1.21875 L 0.703125 -1.21875 L 0.703125 0 L 0.1875 0 L 0.1875 -3.25 Z M 0.703125 -2.78125 L 0.703125 -1.6875 L 0.9375 -1.6875 C 1.019531 -1.6875 1.082031 -1.707031 1.125 -1.75 C 1.164062 -1.789062 1.1875 -1.867188 1.1875 -1.984375 L 1.1875 -2.484375 C 1.1875 -2.597656 1.164062 -2.675781 1.125 -2.71875 C 1.082031 -2.757812 1.019531 -2.78125 0.9375 -2.78125 Z M 0.703125 -2.78125 "/></g></g></g><g fill="#183e9f" fill-opacity="1"><g transform="translate(35.565588, 22.948196)"><g><path d="M 0.1875 -3.25 L 0.703125 -3.25 L 0.703125 -0.46875 L 1.53125 -0.46875 L 1.53125 0 L 0.1875 0 Z M 0.1875 -3.25 "/></g></g></g><g fill="#183e9f" fill-opacity="1"><g transform="translate(37.650227, 22.948196)"><g><path d="M 0.703125 -1.875 L 1.390625 -1.875 L 1.390625 -1.421875 L 0.703125 -1.421875 L 0.703125 -0.46875 L 1.578125 -0.46875 L 1.578125 0 L 0.1875 0 L 0.1875 -3.25 L 1.578125 -3.25 L 1.578125 -2.78125 L 0.703125 -2.78125 Z M 0.703125 -1.875 "/></g></g></g><g fill="#183e9f" fill-opacity="1"><g transform="translate(39.869201, 22.948196)"><g><path d="M 0.03125 -3.25 L 1.609375 -3.25 L 1.609375 -2.78125 L 1.078125 -2.78125 L 1.078125 0 L 0.578125 0 L 0.578125 -2.78125 L 0.03125 -2.78125 Z M 0.03125 -3.25 "/></g></g></g><g fill="#183e9f" fill-opacity="1"><g transform="translate(42.032588, 22.948196)"><g><path d="M 0.703125 -1.875 L 1.390625 -1.875 L 1.390625 -1.421875 L 0.703125 -1.421875 L 0.703125 -0.46875 L 1.578125 -0.46875 L 1.578125 0 L 0.1875 0 L 0.1875 -3.25 L 1.578125 -3.25 L 1.578125 -2.78125 L 0.703125 -2.78125 Z M 0.703125 -1.875 "/></g></g></g><g fill="#183e9f" fill-opacity="1"><g transform="translate(44.251562, 22.948196)"><g/></g></g><g fill="#183e9f" fill-opacity="1"><g transform="translate(45.483867, 22.948196)"><g><path d="M 0.1875 -3.25 L 1 -3.25 C 1.25 -3.25 1.4375 -3.179688 1.5625 -3.046875 C 1.6875 -2.910156 1.75 -2.710938 1.75 -2.453125 L 1.75 -0.796875 C 1.75 -0.535156 1.6875 -0.335938 1.5625 -0.203125 C 1.4375 -0.0664062 1.25 0 1 0 L 0.1875 0 Z M 0.703125 -2.78125 L 0.703125 -0.46875 L 0.984375 -0.46875 C 1.066406 -0.46875 1.128906 -0.488281 1.171875 -0.53125 C 1.222656 -0.582031 1.25 -0.664062 1.25 -0.78125 L 1.25 -2.46875 C 1.25 -2.582031 1.222656 -2.660156 1.171875 -2.703125 C 1.128906 -2.753906 1.066406 -2.78125 0.984375 -2.78125 Z M 0.703125 -2.78125 "/></g></g></g><g fill="#183e9f" fill-opacity="1"><g transform="translate(47.888131, 22.948196)"><g><path d="M 0.703125 -1.875 L 1.390625 -1.875 L 1.390625 -1.421875 L 0.703125 -1.421875 L 0.703125 -0.46875 L 1.578125 -0.46875 L 1.578125 0 L 0.1875 0 L 0.1875 -3.25 L 1.578125 -3.25 L 1.578125 -2.78125 L 0.703125 -2.78125 Z M 0.703125 -1.875 "/></g></g></g><g fill="#183e9f" fill-opacity="1"><g transform="translate(50.107105, 22.948196)"><g><path d="M 0.640625 -2.359375 L 0.640625 0 L 0.1875 0 L 0.1875 -3.25 L 0.828125 -3.25 L 1.34375 -1.296875 L 1.34375 -3.25 L 1.796875 -3.25 L 1.796875 0 L 1.28125 0 Z M 0.640625 -2.359375 "/></g></g></g><g fill="#183e9f" fill-opacity="1"><g transform="translate(52.599382, 22.948196)"><g><path d="M 0.03125 -3.25 L 1.609375 -3.25 L 1.609375 -2.78125 L 1.078125 -2.78125 L 1.078125 0 L 0.578125 0 L 0.578125 -2.78125 L 0.03125 -2.78125 Z M 0.03125 -3.25 "/></g></g></g><g fill="#183e9f" fill-opacity="1"><g transform="translate(54.762767, 22.948196)"><g><path d="M 1.84375 0 L 1.328125 0 L 1.234375 -0.59375 L 0.609375 -0.59375 L 0.515625 0 L 0.046875 0 L 0.578125 -3.25 L 1.3125 -3.25 Z M 0.671875 -1.03125 L 1.171875 -1.03125 L 0.921875 -2.671875 Z M 0.671875 -1.03125 "/></g></g></g><g fill="#183e9f" fill-opacity="1"><g transform="translate(57.162399, 22.948196)"><g><path d="M 0.1875 -3.25 L 0.703125 -3.25 L 0.703125 -0.46875 L 1.53125 -0.46875 L 1.53125 0 L 0.1875 0 Z M 0.1875 -3.25 "/></g></g></g><g fill="#183e9f" fill-opacity="1"><g transform="translate(59.247038, 22.948196)"><g/></g></g><g fill="#183e9f" fill-opacity="1"><g transform="translate(60.479342, 22.948196)"><g><path d="M 1.671875 -1.21875 L 1.671875 -0.78125 C 1.671875 -0.519531 1.601562 -0.316406 1.46875 -0.171875 C 1.34375 -0.0351562 1.15625 0.03125 0.90625 0.03125 C 0.65625 0.03125 0.460938 -0.0351562 0.328125 -0.171875 C 0.203125 -0.316406 0.140625 -0.519531 0.140625 -0.78125 L 0.140625 -2.46875 C 0.140625 -2.726562 0.203125 -2.925781 0.328125 -3.0625 C 0.460938 -3.207031 0.65625 -3.28125 0.90625 -3.28125 C 1.15625 -3.28125 1.34375 -3.207031 1.46875 -3.0625 C 1.601562 -2.925781 1.671875 -2.726562 1.671875 -2.46875 L 1.671875 -2.15625 L 1.1875 -2.15625 L 1.1875 -2.5 C 1.1875 -2.613281 1.160156 -2.695312 1.109375 -2.75 C 1.066406 -2.800781 1.003906 -2.828125 0.921875 -2.828125 C 0.835938 -2.828125 0.769531 -2.800781 0.71875 -2.75 C 0.675781 -2.695312 0.65625 -2.613281 0.65625 -2.5 L 0.65625 -0.75 C 0.65625 -0.632812 0.675781 -0.550781 0.71875 -0.5 C 0.769531 -0.457031 0.835938 -0.4375 0.921875 -0.4375 C 1.003906 -0.4375 1.066406 -0.457031 1.109375 -0.5 C 1.160156 -0.550781 1.1875 -0.632812 1.1875 -0.75 L 1.1875 -1.21875 Z M 1.671875 -1.21875 "/></g></g></g><g fill="#183e9f" fill-opacity="1"><g transform="translate(62.781696, 22.948196)"><g><path d="M 1.84375 0 L 1.328125 0 L 1.234375 -0.59375 L 0.609375 -0.59375 L 0.515625 0 L 0.046875 0 L 0.578125 -3.25 L 1.3125 -3.25 Z M 0.671875 -1.03125 L 1.171875 -1.03125 L 0.921875 -2.671875 Z M 0.671875 -1.03125 "/></g></g></g><g fill="#183e9f" fill-opacity="1"><g transform="translate(65.181328, 22.948196)"><g><path d="M 1.25 0 C 1.25 -0.0195312 1.242188 -0.0390625 1.234375 -0.0625 C 1.222656 -0.0820312 1.21875 -0.101562 1.21875 -0.125 C 1.21875 -0.15625 1.210938 -0.191406 1.203125 -0.234375 C 1.203125 -0.273438 1.203125 -0.332031 1.203125 -0.40625 L 1.203125 -0.90625 C 1.203125 -1.0625 1.175781 -1.171875 1.125 -1.234375 C 1.070312 -1.296875 0.988281 -1.328125 0.875 -1.328125 L 0.703125 -1.328125 L 0.703125 0 L 0.1875 0 L 0.1875 -3.25 L 0.953125 -3.25 C 1.222656 -3.25 1.414062 -3.1875 1.53125 -3.0625 C 1.65625 -2.9375 1.71875 -2.75 1.71875 -2.5 L 1.71875 -2.25 C 1.71875 -1.914062 1.601562 -1.695312 1.375 -1.59375 C 1.507812 -1.539062 1.597656 -1.453125 1.640625 -1.328125 C 1.691406 -1.210938 1.71875 -1.066406 1.71875 -0.890625 L 1.71875 -0.390625 C 1.71875 -0.316406 1.71875 -0.25 1.71875 -0.1875 C 1.726562 -0.125 1.742188 -0.0625 1.765625 0 Z M 0.703125 -2.78125 L 0.703125 -1.78125 L 0.890625 -1.78125 C 0.992188 -1.78125 1.070312 -1.804688 1.125 -1.859375 C 1.175781 -1.910156 1.203125 -2 1.203125 -2.125 L 1.203125 -2.453125 C 1.203125 -2.566406 1.179688 -2.648438 1.140625 -2.703125 C 1.097656 -2.753906 1.03125 -2.78125 0.9375 -2.78125 Z M 0.703125 -2.78125 "/></g></g></g><g fill="#183e9f" fill-opacity="1"><g transform="translate(67.557797, 22.948196)"><g><path d="M 0.703125 -1.875 L 1.390625 -1.875 L 1.390625 -1.421875 L 0.703125 -1.421875 L 0.703125 -0.46875 L 1.578125 -0.46875 L 1.578125 0 L 0.1875 0 L 0.1875 -3.25 L 1.578125 -3.25 L 1.578125 -2.78125 L 0.703125 -2.78125 Z M 0.703125 -1.875 "/></g></g></g><g clip-path="url(#ea513ec2ed)"><g clip-path="url(#2d6ab13931)"><g clip-path="url(#1258bdc8c0)"><path fill="#ffc100" d="M 1.652344 10.914062 C 1.65625 10.878906 1.660156 10.84375 1.667969 10.8125 L 1.6875 10.710938 C 1.695312 10.644531 1.71875 10.582031 1.734375 10.523438 C 1.777344 10.402344 1.820312 10.289062 1.878906 10.179688 C 1.9375 10.074219 2 9.972656 2.074219 9.882812 C 2.226562 9.699219 2.410156 9.539062 2.632812 9.414062 L 2.671875 9.390625 L 2.71875 9.371094 C 2.746094 9.355469 2.777344 9.339844 2.804688 9.328125 C 2.867188 9.304688 2.929688 9.273438 2.996094 9.25 C 3.0625 9.226562 3.132812 9.207031 3.203125 9.191406 C 3.277344 9.171875 3.351562 9.15625 3.433594 9.136719 C 3.304688 9.035156 3.148438 8.972656 2.984375 8.9375 C 2.898438 8.921875 2.816406 8.917969 2.730469 8.914062 C 2.6875 8.914062 2.644531 8.921875 2.601562 8.921875 L 2.535156 8.929688 C 2.515625 8.933594 2.492188 8.9375 2.472656 8.941406 C 2.128906 9.003906 1.804688 9.203125 1.582031 9.480469 C 1.46875 9.621094 1.382812 9.78125 1.320312 9.945312 C 1.261719 10.113281 1.238281 10.292969 1.238281 10.464844 C 1.242188 10.507812 1.246094 10.554688 1.25 10.597656 C 1.253906 10.617188 1.253906 10.640625 1.257812 10.660156 C 1.261719 10.679688 1.265625 10.703125 1.269531 10.722656 C 1.28125 10.765625 1.289062 10.804688 1.300781 10.847656 C 1.316406 10.886719 1.328125 10.925781 1.34375 10.964844 C 1.414062 11.121094 1.507812 11.257812 1.632812 11.363281 C 1.632812 11.199219 1.632812 11.054688 1.652344 10.914062 Z M 17.828125 9.457031 C 17.820312 9.425781 17.808594 9.390625 17.796875 9.359375 L 17.757812 9.265625 C 17.738281 9.203125 17.703125 9.144531 17.679688 9.089844 C 17.617188 8.976562 17.550781 8.871094 17.476562 8.777344 C 17.398438 8.683594 17.320312 8.59375 17.230469 8.519531 C 17.046875 8.363281 16.839844 8.242188 16.597656 8.160156 L 16.554688 8.144531 L 16.507812 8.128906 C 16.476562 8.121094 16.445312 8.113281 16.410156 8.101562 C 16.347656 8.089844 16.28125 8.070312 16.210938 8.0625 C 16.140625 8.050781 16.070312 8.042969 15.996094 8.039062 C 15.921875 8.035156 15.84375 8.03125 15.761719 8.03125 C 15.867188 7.90625 16.011719 7.816406 16.167969 7.753906 C 16.246094 7.722656 16.328125 7.703125 16.414062 7.683594 C 16.457031 7.675781 16.496094 7.675781 16.539062 7.667969 L 16.605469 7.664062 C 16.628906 7.664062 16.648438 7.664062 16.671875 7.664062 C 17.019531 7.664062 17.375 7.804688 17.644531 8.039062 C 17.78125 8.152344 17.890625 8.296875 17.980469 8.449219 C 18.070312 8.605469 18.125 8.773438 18.15625 8.945312 C 18.164062 8.988281 18.164062 9.03125 18.167969 9.074219 C 18.171875 9.097656 18.171875 9.117188 18.171875 9.136719 C 18.171875 9.160156 18.171875 9.183594 18.171875 9.203125 C 18.167969 9.246094 18.167969 9.289062 18.164062 9.332031 C 18.15625 9.371094 18.148438 9.414062 18.140625 9.453125 C 18.101562 9.617188 18.035156 9.773438 17.929688 9.898438 C 17.902344 9.738281 17.871094 9.59375 17.828125 9.457031 Z M 2.429688 9.710938 C 2.484375 9.777344 2.542969 9.84375 2.601562 9.90625 L 2.691406 10.003906 L 2.738281 10.054688 L 2.972656 10.289062 L 3.070312 10.378906 L 3.171875 10.46875 C 3.304688 10.585938 3.4375 10.703125 3.582031 10.808594 L 3.796875 10.96875 C 3.867188 11.023438 3.941406 11.070312 4.015625 11.121094 C 4.207031 11.25 5.042969 12.015625 5.09375 12.066406 C 5.144531 12.121094 5.195312 12.171875 5.246094 12.226562 C 5.296875 12.277344 5.347656 12.332031 5.402344 12.378906 C 5.832031 12.78125 6.316406 13.132812 6.84375 13.417969 C 6.90625 13.453125 6.972656 13.488281 7.039062 13.523438 L 7.246094 13.617188 C 7.378906 13.683594 7.519531 13.734375 7.660156 13.789062 C 7.941406 13.898438 8.234375 13.976562 8.53125 14.046875 C 8.601562 14.066406 8.679688 14.078125 8.753906 14.089844 L 8.976562 14.128906 C 9.128906 14.144531 9.28125 14.164062 9.429688 14.175781 C 9.433594 14.175781 9.433594 14.175781 9.433594 14.175781 L 9.660156 14.183594 C 9.738281 14.1875 9.8125 14.191406 9.890625 14.1875 L 10.121094 14.179688 L 10.234375 14.175781 C 10.273438 14.175781 10.3125 14.171875 10.347656 14.167969 L 10.578125 14.140625 C 10.613281 14.136719 10.652344 14.132812 10.691406 14.128906 L 10.804688 14.109375 C 10.953125 14.082031 11.105469 14.058594 11.253906 14.015625 L 11.476562 13.957031 C 11.550781 13.941406 11.621094 13.914062 11.695312 13.890625 L 11.910156 13.816406 C 11.980469 13.789062 12.050781 13.757812 12.121094 13.730469 L 12.332031 13.640625 C 12.398438 13.605469 12.46875 13.570312 12.535156 13.539062 C 12.601562 13.503906 12.671875 13.46875 12.738281 13.433594 C 12.800781 13.394531 12.867188 13.355469 12.929688 13.316406 L 13.125 13.199219 C 13.1875 13.15625 13.25 13.113281 13.308594 13.070312 L 13.492188 12.9375 C 13.554688 12.894531 13.609375 12.84375 13.667969 12.796875 C 13.78125 12.703125 13.898438 12.609375 14.003906 12.5 L 14.164062 12.347656 L 14.242188 12.269531 C 14.269531 12.242188 14.292969 12.214844 14.320312 12.1875 C 14.417969 12.078125 14.519531 11.96875 14.613281 11.855469 L 14.882812 11.507812 L 14.914062 11.46875 C 14.914062 11.464844 14.917969 11.464844 14.917969 11.464844 L 14.945312 11.421875 L 15.007812 11.328125 C 15.050781 11.269531 15.863281 10.179688 16.023438 10.019531 L 16.121094 9.925781 L 16.167969 9.878906 L 16.210938 9.828125 L 16.394531 9.632812 L 16.570312 9.433594 C 16.628906 9.367188 16.683594 9.296875 16.738281 9.226562 L 16.902344 9.019531 L 16.984375 8.914062 L 17.0625 8.804688 C 17.0625 8.804688 17.0625 8.800781 17.066406 8.800781 C 17.109375 8.734375 17.023438 8.65625 16.964844 8.710938 C 16.964844 8.710938 16.960938 8.710938 16.960938 8.714844 L 16.863281 8.800781 L 16.761719 8.882812 L 16.558594 9.050781 C 16.492188 9.105469 16.429688 9.160156 16.359375 9.214844 L 16.152344 9.371094 L 15.949219 9.53125 L 15.898438 9.566406 C 15.898438 9.570312 15.898438 9.570312 15.894531 9.570312 L 15.84375 9.605469 L 15.738281 9.679688 C 15.179688 10.074219 14.597656 10.433594 13.988281 10.722656 C 12.773438 11.3125 11.46875 11.675781 10.136719 11.789062 C 8.808594 11.902344 7.457031 11.78125 6.152344 11.429688 C 4.84375 11.078125 3.59375 10.5 2.429688 9.710938 " fill-opacity="1" fill-rule="nonzero"/></g></g></g></svg>